# xmcd
#
# Track frame offsets:
#	150
#	21582
#	33365
#	47420
#	67472
#	88695
#	103545
#	123192
#	146292
#	167527
#	179252
#	193265
#	213340
#	234572
#	249357
#	268977
#	303400
#
# Disc length: 4057 seconds
#
# Revision: 1
# Processed by: cddbd v1.5.2PL0 Copyright (c) Steve Scherf et al.
# Submitted via: audiograbber 1.83.01
#
DISCID=f20fd711
DTITLE=Shania Twain - SC2039
DYEAR=1996
DGENRE=Country
TTITLE0=(If Your Not In It For Love) I'm Outta Here
TTITLE1=Dance With The One That Brought You
TTITLE2=You Lay A Whole Lot Of Love On Me
TTITLE3=Any Man Of Mine
TTITLE4=You Win My Love
TTITLE5=No One Needs To Know
TTITLE6=Whose Bed Have Your Boots Been Under
TTITLE7=The Woman In Me (Needs The Man In You)
TTITLE8=(If Your Not In It For Love) I'm Outta Here w/ vocals
TTITLE9=Dance With The One That Brought You w/ vocals
TTITLE10=You Lay A Whole Lot Of Love On Me w/ vocals
TTITLE11=Any Man Of Mine w/ vocals
TTITLE12=You Win My Love w/ vocals
TTITLE13=No One Needs To Know w/ vocals
TTITLE14=Whose Bed Have Your Boots Been Under w/ vocals
TTITLE15=The Woman In Me (Needs The Man In You) w/ vocals
TTITLE16=Data
EXTD=
EXTT0=
EXTT1=
EXTT2=
EXTT3=
EXTT4=
EXTT5=
EXTT6=
EXTT7=
EXTT8=
EXTT9=
EXTT10=
EXTT11=
EXTT12=
EXTT13=
EXTT14=
EXTT15=
EXTT16=
PLAYORDER=
